<svg width="201" height="39" viewBox="0 0 201 39" fill="none" xmlns="http://www.w3.org/2000/svg">
<path fill-rule="evenodd" clip-rule="evenodd" d="M1.79773 21.571V12.9326L8.99791 14.2761V27.0249C8.99791 29.0958 8.54313 32.0608 7.25408 34.1404C4.37886 38.7827 0.393982 38.7827 0.393982 38.7827C0.393982 38.7827 1.65322 37.4194 1.79773 34.9887C1.98217 31.8858 1.79773 21.571 1.79773 21.571Z" fill="url(#paint0_linear)"/>
<path fill-rule="evenodd" clip-rule="evenodd" d="M1.79773 21.571V12.9326L8.99791 14.2761V27.0249C8.99791 29.0958 8.54313 32.0608 7.25408 34.1404C4.37886 38.7827 0.393982 38.7827 0.393982 38.7827C0.393982 38.7827 1.65322 37.4194 1.79773 34.9887C1.98217 31.8858 1.79773 21.571 1.79773 21.571Z" fill="url(#paint1_linear)"/>
<mask id="mask0" mask-type="alpha" maskUnits="userSpaceOnUse" x="1" y="0" width="27" height="27">
<path fill-rule="evenodd" clip-rule="evenodd" d="M27.2374 26.4952V0.916199H1.9505L1.9505 26.4952H27.2374Z" fill="white"/>
</mask>
<g mask="url(#mask0)">
<path fill-rule="evenodd" clip-rule="evenodd" d="M8.94775 14.4046C9.28939 17.2527 11.6862 19.4593 14.5936 19.4593C17.7361 19.4593 20.2838 16.8829 20.2838 13.7047C20.2838 10.5261 17.7361 7.94919 14.5936 7.94919C12.0191 7.94919 9.84479 9.67994 9.14346 12.0542L2.27948 9.24883C2.67773 8.71274 3.31464 7.61286 3.66701 7.09864C4.17703 6.35308 4.51037 5.921 5.38252 4.94749C5.69244 4.60095 6.03359 4.28455 6.38498 3.98029C6.96138 3.46996 7.64904 2.95186 8.55682 2.46534L8.55633 2.46729C10.3509 1.47871 12.4071 0.914917 14.5936 0.914917C21.5771 0.914917 27.2376 6.64081 27.2376 13.7047C27.2376 20.7682 21.5771 26.4941 14.5936 26.4941C7.61146 26.4941 1.95053 20.7682 1.95053 13.7047C1.95053 13.4846 1.9559 13.2663 1.96712 13.0496L8.94775 14.4046Z" fill="#EE3955"/>
</g>
<path fill-rule="evenodd" clip-rule="evenodd" d="M14.5896 26.511C7.60199 26.511 1.93698 20.8595 1.93698 13.8873C1.93698 13.6705 1.94235 13.4551 1.95408 13.2411L8.93924 14.5786C9.28113 17.3897 11.6802 19.5676 14.5896 19.5676C16.4846 19.5676 18.1642 18.6432 19.1987 17.2223C19.8815 16.2859 27.2422 13.8873 27.2422 13.8873C27.2422 20.8595 21.5777 26.511 14.5896 26.511Z" fill="#EE3955"/>
<path d="M50.1575 7.31403H42.9318C42.1225 7.31403 42.1803 7.71866 42.1803 8.35452V10.5511V11.2448C42.1803 11.8228 42.4116 11.9385 42.9896 11.9385H43.6833H46.747H48.7702H50.1575C52.9322 11.9385 54.8976 12.5165 54.8976 15.6958C54.8976 18.4127 52.9322 19.2219 50.1575 19.2219H43.0474C42.3538 19.2219 42.1804 19.2219 42.2382 19.8C42.2382 19.8578 42.2382 22.6325 42.2382 22.6325V29.7426C42.2382 30.5518 42.3538 30.783 42.9896 30.783H45.7643C46.4001 30.783 46.8048 30.5518 46.8048 29.7426V23.8464H50.2153C56.2849 23.8464 59.522 20.6093 59.522 15.638C59.4064 10.6668 56.2271 7.31403 50.1575 7.31403Z" fill="#EE3955"/>
<path d="M111.72 26.5055L110.68 25.1181L107.096 20.1469C106.807 19.7422 106.691 19.3954 106.633 18.9908C106.633 18.5861 106.807 18.2393 107.096 17.8346L110.68 12.8633L111.72 11.476L113.628 8.93258C114.206 8.1233 114.206 7.37183 113.108 7.37183H112.472H111.027H110.102C109.582 7.37183 109.061 7.54525 108.021 8.93258L104.784 13.0946L103.685 14.5397C103.454 14.8288 103.281 14.9444 103.05 14.9444C102.818 14.9444 102.645 14.7709 102.414 14.5397L101.315 13.0946L98.0783 8.93258C97.0378 7.54525 96.5175 7.37183 95.9972 7.37183H95.0724H93.6272H93.0492C91.9509 7.37183 91.9509 8.18111 92.5289 8.93258L94.4365 11.476L95.477 12.8633L99.0609 17.8346C99.35 18.2393 99.4656 18.5861 99.5234 18.9908C99.5234 19.3954 99.35 19.7422 99.0609 20.1469L95.477 25.1181L94.4365 26.5055L92.5289 29.0489C91.9509 29.8582 91.9509 30.6096 93.0492 30.6096H93.685H95.1302H96.0551C96.5753 30.6096 97.0955 30.4362 98.136 29.0489L101.373 24.8869L102.471 23.4418C102.703 23.1528 102.876 23.0371 103.107 23.0371C103.281 23.0371 103.512 23.2106 103.743 23.4418L104.841 24.8869L108.079 29.0489C109.119 30.4362 109.639 30.6096 110.16 30.6096H111.084H112.53H113.165C114.264 30.6096 114.264 29.8004 113.686 29.0489L111.72 26.5055Z" fill="#EE3955"/>
<path d="M85.8812 29.1645L77.7306 8.81695C77.326 7.83426 76.9214 7.37183 76.1121 7.31403C75.9965 7.31403 75.5918 7.31403 75.4762 7.31403C74.667 7.37183 74.2623 7.83426 73.8577 8.81695L65.7071 29.1645C65.3603 30.0894 65.5915 30.5518 66.4008 30.5518L68.7708 30.6096C69.4645 30.5518 69.9269 30.1472 70.2159 29.5114L75.8809 15.349L81.5458 29.5114C81.8348 30.205 82.2973 30.5518 82.991 30.6096L85.361 30.5518C85.9968 30.5518 86.2281 30.0894 85.8812 29.1645Z" fill="#EE3955"/>
<path d="M174.844 11.5916C175.249 11.5338 175.48 11.4182 175.48 10.8401V8.41234C175.48 7.48746 175.017 7.31403 174.381 7.31403H173.514H172.011H163.341H162.878H161.606C161.028 7.31403 160.508 7.77648 160.508 8.41234V10.0887V11.476V26.5055V27.8928V29.5114C160.508 30.0894 160.971 30.6096 161.606 30.6096H162.994H172.474H173.399H174.381C174.96 30.6096 175.48 30.1472 175.48 29.5114V27.6616C175.48 27.0835 175.017 26.3321 174.381 26.3321H173.803H166.462H165.017V24.251V20.4359H173.803C174.381 20.4359 174.902 20.2047 174.902 19.5688V17.7768C174.902 17.1988 174.439 16.6785 173.803 16.6785H165.017V11.5916H174.844Z" fill="#EE3955"/>
<path d="M199.411 7.37183H198.544H195.423H186.463H182.648H182.474C181.954 7.37183 181.549 7.77649 181.549 8.29674V10.609C181.549 11.1292 181.954 11.5338 182.474 11.5338H186.463C186.521 11.5338 186.521 11.5338 186.578 11.5338H188.717V26.5055V27.6616V29.6848C188.717 30.205 189.122 30.6096 189.642 30.6096H192.301C192.821 30.6096 193.226 30.205 193.226 29.6848V27.6616V26.5055V11.5338H195.365C195.423 11.5338 195.423 11.5338 195.481 11.5338H199.469C199.989 11.5338 200.394 11.1292 200.394 10.609V8.29674C200.278 7.77649 199.874 7.37183 199.411 7.37183Z" fill="#EE3955"/>
<path d="M154.323 29.1645L146.172 8.81695C145.768 7.83426 145.363 7.37183 144.554 7.31403C144.496 7.31403 144.496 7.31403 144.438 7.31403H144.38C143.687 7.37183 143.224 7.77648 142.935 8.41234L137.27 22.5747L131.605 8.41234C131.316 7.71868 130.854 7.37183 130.16 7.31403C130.102 7.31403 130.102 7.31403 130.045 7.31403C129.235 7.37183 128.831 7.83426 128.426 8.81695L120.276 29.1645C119.929 30.0894 120.16 30.5518 120.969 30.5518L123.339 30.6096C124.033 30.5518 124.495 30.1472 124.784 29.5114L130.16 16.1005L135.421 29.1645C135.825 30.1472 136.23 30.5519 137.039 30.6675C137.097 30.6675 137.213 30.6675 137.328 30.6675C137.444 30.6675 137.617 30.6675 137.675 30.6675C138.484 30.6097 138.889 30.1472 139.294 29.1645L144.554 16.1005L149.93 29.5114C150.219 30.205 150.681 30.5518 151.375 30.6096L153.745 30.5518C154.439 30.5518 154.67 30.0894 154.323 29.1645Z" fill="#EE3955"/>
<defs>
<linearGradient id="paint0_linear" x1="4.69594" y1="12.9326" x2="4.69594" y2="38.7827" gradientUnits="userSpaceOnUse">
<stop stop-color="#EE3955"/>
<stop offset="1" stop-color="#EE3955"/>
</linearGradient>
<linearGradient id="paint1_linear" x1="4.69594" y1="12.9326" x2="4.69594" y2="38.7827" gradientUnits="userSpaceOnUse">
<stop stop-opacity="0.29"/>
<stop offset="1" stop-color="#EE3955" stop-opacity="0"/>
</linearGradient>
</defs>
</svg>
